name GIL06_xslow1EmgEnv.mot
datacolumns 51
datarows 4
range 0.77129626 0.77407408
endheader
                time	   rect_fem_l_emgRec	   rect_fem_l_emgEnv	   rect_fem_l_emgAve	   rect_fem_l_emgSDp	   rect_fem_l_emgSDm	   rect_fem_r_emgRec	   rect_fem_r_emgEnv	   rect_fem_r_emgAve	   rect_fem_r_emgSDp	   rect_fem_r_emgSDm	   med_hams_l_emgRec	   med_hams_l_emgEnv	   med_hams_l_emgAve	   med_hams_l_emgSDp	   med_hams_l_emgSDm	   med_hams_r_emgRec	   med_hams_r_emgEnv	   med_hams_r_emgAve	   med_hams_r_emgSDp	   med_hams_r_emgSDm	   lat_hams_l_emgRec	   lat_hams_l_emgEnv	   lat_hams_l_emgAve	   lat_hams_l_emgSDp	   lat_hams_l_emgSDm	   lat_hams_r_emgRec	   lat_hams_r_emgEnv	   lat_hams_r_emgAve	   lat_hams_r_emgSDp	   lat_hams_r_emgSDm	    tib_ant_l_emgRec	    tib_ant_l_emgEnv	    tib_ant_l_emgAve	    tib_ant_l_emgSDp	    tib_ant_l_emgSDm	    tib_ant_r_emgRec	    tib_ant_r_emgEnv	    tib_ant_r_emgAve	    tib_ant_r_emgSDp	    tib_ant_r_emgSDm	    gas_sol_l_emgRec	    gas_sol_l_emgEnv	    gas_sol_l_emgAve	    gas_sol_l_emgSDp	    gas_sol_l_emgSDm	    gas_sol_r_emgRec	    gas_sol_r_emgEnv	    gas_sol_r_emgAve	    gas_sol_r_emgSDp	    gas_sol_r_emgSDm	
          0.77129626	          0.05100226	          0.03764870	          0.01708297	          0.05079447	         -0.01662854	          0.10916142	          0.11478606	          0.14714579	          0.19001886	          0.10427273	          0.11898133	          0.29384052	          0.29903880	          0.41436675	          0.18371084	          0.00604924	          0.03535914	          0.26673537	          0.56851360	         -0.03504285	          0.00578990	          0.07680281	          0.11100589	          0.11900654	          0.10300525	          0.07379411	          0.06825995	          0.15697652	          0.36214672	         -0.04819368	          0.03121500	          0.11472275	          0.13595325	          0.16879840	          0.10310810	          0.05186985	          0.14337615	          0.21618836	          0.29501728	          0.13735943	          0.04802599	          0.45387923	          0.50044620	          0.60540315	          0.39548925	          0.00960168	          0.01042677	          0.01650459	          0.01911543	          0.01389376	
          0.77222222	          0.06753715	          0.03766685	          0.01800916	          0.05317046	         -0.01715214	          0.05677739	          0.11329864	          0.14758337	          0.19072020	          0.10444653	          0.02825420	          0.29240676	          0.30037159	          0.41783936	          0.18290381	          0.00577237	          0.03429831	          0.26767665	          0.56999612	         -0.03464282	          0.00978527	          0.07565308	          0.11164047	          0.11978814	          0.10349280	          0.06308105	          0.06828632	          0.15794960	          0.36325301	         -0.04735382	          0.04271102	          0.11606232	          0.13591915	          0.16834409	          0.10349422	          0.08201931	          0.14232438	          0.21685134	          0.29569668	          0.13800599	          0.17663779	          0.45661956	          0.50019896	          0.60424875	          0.39614917	          0.00050309	          0.01054776	          0.01655279	          0.01922657	          0.01387902	
          0.77314818	          0.05517802	          0.03767379	          0.01896077	          0.05560039	         -0.01767884	          0.06143754	          0.11195787	          0.14802566	          0.19143299	          0.10461834	          0.07697479	          0.29091555	          0.30169874	          0.42132862	          0.18206887	          0.00704888	          0.03326406	          0.26861671	          0.57146657	         -0.03423315	          0.01062809	          0.07453770	          0.11227436	          0.12057224	          0.10397649	          0.03996834	          0.06834693	          0.15893020	          0.36435710	         -0.04649670	          0.02489513	          0.11740749	          0.13588378	          0.16789376	          0.10387379	          0.06717954	          0.14131797	          0.21752326	          0.29638248	          0.13866404	          0.29461218	          0.45924685	          0.49994454	          0.60310434	          0.39678474	          0.00168829	          0.01067692	          0.01660134	          0.01933901	          0.01386368	
          0.77407408	          0.05526847	          0.03767016	          0.01993765	          0.05808380	         -0.01820850	          0.11325560	          0.11078051	          0.14847258	          0.19215708	          0.10478807	          0.16190407	          0.28937774	          0.30302015	          0.42483401	          0.18120629	          0.00137853	          0.03225885	          0.26955545	          0.57292476	         -0.03381386	          0.00914168	          0.07346165	          0.11290752	          0.12135875	          0.10445630	          0.01481259	          0.06844026	          0.15991829	          0.36545904	         -0.04562245	          0.00615712	          0.11875612	          0.13584715	          0.16744753	          0.10424677	          0.04626376	          0.14036235	          0.21820399	          0.29707454	          0.13933344	          0.17464678	          0.46176152	          0.49968293	          0.60197002	          0.39739585	          0.00251999	          0.01081444	          0.01665024	          0.01945273	          0.01384775	
